<?xml version="1.0" encoding="UTF-8"?>
<svg id="Layer_1" data-name="Layer 1" xmlns="http://www.w3.org/2000/svg" viewBox="0 0 884.41 466.36">
  <defs>
    <style>
      .cls-1 {
        stroke-width: 0px;
      }
    </style>
  </defs>
  <g id="Studio">
    <path class="cls-1" d="m558.45,163.5c-4.06,0-7.73-.87-11-2.62-3.24-1.75-5.79-4.15-7.65-7.2-1.83-3.09-2.74-6.55-2.74-10.39,0-3.83.91-7.28,2.74-10.33,1.86-3.09,4.41-5.51,7.65-7.26,3.27-1.75,6.94-2.62,11-2.62s7.71.87,10.94,2.62c3.24,1.75,5.79,4.17,7.65,7.26,1.86,3.05,2.79,6.5,2.79,10.33s-.93,7.3-2.79,10.39c-1.86,3.05-4.41,5.45-7.65,7.2-3.24,1.75-6.89,2.62-10.94,2.62Zm0-7.71c2.31,0,4.39-.52,6.25-1.56,1.86-1.08,3.31-2.57,4.36-4.47,1.08-1.9,1.62-4.06,1.62-6.48s-.54-4.58-1.62-6.48c-1.04-1.9-2.5-3.37-4.36-4.41-1.86-1.08-3.95-1.62-6.25-1.62s-4.39.54-6.25,1.62c-1.86,1.04-3.33,2.51-4.41,4.41-1.04,1.9-1.56,4.06-1.56,6.48s.52,4.58,1.56,6.48c1.08,1.9,2.55,3.39,4.41,4.47,1.86,1.04,3.94,1.56,6.25,1.56Z"/>
    <path class="cls-1" d="m517.85,123.75h9.05v39.09s-9.05,0-9.05,0v-39.09Z"/>
    <path class="cls-1" d="m468.36,123.75h17.76c4.24,0,7.99.82,11.22,2.46,3.27,1.6,5.81,3.87,7.59,6.81,1.82,2.94,2.74,6.37,2.74,10.27s-.91,7.33-2.74,10.27c-1.79,2.94-4.32,5.23-7.59,6.87-3.24,1.6-6.98,2.4-11.22,2.4h-17.76v-39.09Zm17.31,31.66c3.91,0,7.01-1.08,9.33-3.24,2.35-2.2,3.52-5.16,3.52-8.88,0-3.72-1.17-6.66-3.52-8.82-2.31-2.2-5.42-3.29-9.33-3.29h-8.26v24.23s8.26,0,8.26,0Z"/>
    <path class="cls-1" d="m438.37,163.5c-5.58,0-9.94-1.55-13.07-4.63-3.09-3.09-4.63-7.5-4.63-13.23v-21.89h9.05v21.55c0,7,2.9,10.5,8.71,10.5,2.83,0,4.99-.84,6.48-2.51,1.49-1.71,2.23-4.37,2.23-7.99v-21.55h8.93v21.89c0,5.73-1.56,10.14-4.69,13.23-3.09,3.09-7.43,4.63-13.01,4.63Z"/>
    <path class="cls-1" d="m391.89,131.12h-12.51v-7.37h34.06v7.37h-12.51v31.72h-9.05v-31.72Z"/>
    <path class="cls-1" d="m358.22,163.5c-3.09,0-6.09-.41-8.99-1.23-2.87-.86-5.17-1.95-6.92-3.29l3.07-6.81c1.68,1.23,3.67,2.21,5.97,2.96,2.31.74,4.62,1.12,6.92,1.12,2.57,0,4.47-.37,5.7-1.12,1.23-.78,1.84-1.81,1.84-3.07,0-.93-.37-1.69-1.12-2.29-.71-.63-1.64-1.14-2.79-1.51-1.12-.37-2.64-.78-4.58-1.23-2.98-.71-5.42-1.41-7.31-2.12-1.9-.71-3.54-1.84-4.91-3.41-1.34-1.56-2.01-3.65-2.01-6.25,0-2.27.61-4.32,1.84-6.14,1.23-1.86,3.07-3.33,5.53-4.41,2.49-1.08,5.53-1.62,9.1-1.62,2.49,0,4.93.3,7.31.89,2.38.6,4.47,1.45,6.25,2.57l-2.79,6.87c-3.61-2.05-7.22-3.07-10.83-3.07-2.53,0-4.41.41-5.64,1.23-1.19.82-1.79,1.9-1.79,3.24s.69,2.35,2.07,3.02c1.41.63,3.56,1.27,6.42,1.9,2.98.71,5.42,1.41,7.31,2.12,1.9.71,3.52,1.82,4.86,3.35,1.38,1.53,2.07,3.59,2.07,6.2,0,2.23-.63,4.28-1.9,6.14-1.23,1.82-3.09,3.28-5.58,4.36-2.49,1.08-5.53,1.62-9.1,1.62Z"/>
  </g>
  <g id="Ghar_Se" data-name="Ghar Se">
    <path class="cls-1" d="m452.16,275.93c-1.58-1.89-3.99-4.7-1.65-6.37-3.88-1.57-3.91-6.39-4.03-10.19-5.44-3.65-.04-2.68-1.06-4.24-.62.32-1.34.18-1.52-.51.15-1.31,1.84.7,2.19-.44-4.71-2.16-.32-3.38,2.14-5.91-.68-1.43-2.36-1.1-3.59-2.1.67-.34,3.62-1.36,2.18-2.12-3.46-4.42-2.23-8.7-1.54-12.65-5.87-.3,1.68-9.15-10.77-14.16,1.32-3.14-6.76-1.98-3.02-4.94-1.64-.92-2.12-2.26-2.6-4.16.12-3.79-5.48-4.42-4.98-7.32-3.24-.32-6.07-6.04-10.22-4.6-.91.45-.82-2.31-1.5-.82-1.63,3.13-3.95-4.61-6.04-3.06-.09,1.28,2.21,2.21,1.51,3.52-1.79-.37-3.8-5.78-4.78-1.54-.7-1.02-2.52,1.24-1.79-.31-.05-.38-4.81-1.2-5.29,1-.1,4.62-2.88,9.94-6.86,12.55-2.92.99-.15,1.85-3.26,3.63-1.96,2.36-4.15,7.78-6.67,10.67-4.14,2.21-5.29,11.25-7.74,17.1.99,2.73.99-1.65,1.58-2.26.92,5.8.44,25.31,5.01,26.89,2.27,2.98,2.69,11.87,5.84,11.34,3.28-3.16,2.16,2.95,5.14,2.68,1.04-.19-.37.51.38.98.79-.9,2.48.49,2.79-.9,7.87-2.62,7.08,5.14,18.4-5.66,5.08-2.23,6.65-9.1,10.86-12.21.2-2.08-1-5.1,2.15-4.3,1.93,3.15,1.41,12.98,5.38,9.69-.34,2.66,1.78,3.18,2.33,5.46,1.82,3.32,4.65,12.23,8.23,12.82-1.24-2.85-1-6.7,1.12-8.06-1.97-4.53,1.07-.8,1.26.23,4.73,2.97,6.23,3.1,3.23-2.94,1.12-3.31,8.69,7.37,7.18,3.22Zm-7.72-43.98c.28.12.39.16.49.2-.28.39-.81.21-.49-.2Zm-44.51-37.12c-.78-.16-.2-.42.04-.81.3.26.08.52-.04.81Zm45.8,81.85c.21,1.21-3.16-1.43-1.94-2.13.98-.01,1.36,1.4,1.94,2.13Z"/>
    <path class="cls-1" d="m547.14,206.75c-2.02-.23,1.02-1.13-.59-1.18,2.03-3.02-2.11-.57-3.1-2.7,1.63-5.37-8.71-3.67-11.44-7.46-2.79-.35-5.02-.93-7.03-1.49,4.89-.12-4.75-2.11-6.85-1.29-6.66-1.14-14.55,2.41-20.13,7.3,3.26-.54,6.31-4.99,10.29-4.06,1.16,2.27,2.02-2.74,4.08-1.53.18.69.37,1.65,1.66-.15.74-.86,6.95.62,5.45,1.68-2.34-2.22-3.8,1.34-6.71.68-.66-.55-1.54.53-.87,1.03.8,1.1-2.05.17-1.29,1.23.76,2.16-3.58-1.23-2.69,1.97-6.11,6.55-2.63-1.29-8.45,3.87,2.97-.95-.84,2.56-4.22,4.71-.27.35-.65.6-1.16.69-1.11.61-2.06.97-2.56.84,1.07-2.04-2.58,0-3.51,1.61-2.13-.93.84-2.25-.05-3.64.22-2.18-1.18-.07-1.81-1.25.92-1.12,2.47.76,3.6.47-1.54-.82-1.33-5.04-2.66-3.96-4.2-3.23-.82-1.39-.98-5.72.24-1.46-2.16,1.41-2.2-.27-.35-2.2-1.96-3.29-2.32-5.35-1.44-2.01-2.5.35-2.17,1.99-3.15,2.86-9.21-3.8-12.37-2.18-6.84-.38-1.89,2.13-2.01,5.37-.73,1.31,2.69,1.06.75,1.93.68.74,5.94,1.35,2.51,2.63,1.03,1.31,1.27,4.5.07,6.61,2.86.95-1.43,3.59-1.12,5.02-.38,5.12-2.38,10.39-2.24,16.03-.2,8.15-3.83,18.13-2.34,24.38,1.62,1.65-.98,7.94,2.28,7.12.37,1.76-.37,1.46-1.24,1.06.05,1.84.28,3.93,1.7,5.24,2.87,8.79,5.06,13.51,12.21,18.74,5.3-.99,1.23,2.04,4.88,2.35,2.16-2,5.41-6.94,8.79-12.78l-.51.62c.15-.18.68-1.47.63-.83,2.35-4.07,4.76-8.55,6.91-12.77,0-.04,0-.06,0-.1-.2-.89.11-1.37.65-1.66.08-.2.16-.39.25-.59-.11-.03-.2-.11-.23-.28.17-.1.34-.2.5-.3.62-1.3,1.37-2.57,2.17-3.82,4.65-9.77,6.24-14.96-1.11-2.88-15.14,16.38,2.14-13.39,6.2-17.6-7.33,4.43-2.71-1.75-.09-6.03,1.15-1.97-2.75-1.28,1.27-5.19,3.11-5.42,10.43-8.85,12.61-12.23-2.24-1.54,3.04-2.84,3.92-4.1,4.8-2.73,6.12.12,8.52-.07-2.95-3.07-.66-2.79,1.56-1.01,3.56.33,6.11,1.93,9.29,2.22,1.2.07,1.47-.44.34-1.1.05-1.34,4.38-.51,2.97-1.87Zm-34.62-13.01c-.14-.26,0-.28.22-.34-.07.22-.15.28-.22.34Zm-47.11,1.14c-.98-.29-1.12-1.8.3-1.52.87.17.11,1.41-.3,1.52Zm-.33,45.05l-.5.22c.17-.05.3-.33.5-.22Zm.32,20.92c-1.09,1.54-1.59-2.65,0-1.68.63-2.45.77.86,0,1.68Zm2.39-30.82c2-2.86,2.1-19.19,3.85-14.92-1.35,4.04-.68,12.27-3.85,14.92Zm19.23,44.1c-1.13-2.14,3.58-2.96,2.8-3.68,3.31-3.19.16-8.54,3.99-11.01-.1,7.63-3.11,17.27-6.78,14.69Zm32.68-60.88c-1.49.99-1.6.14-.5-.95.26.21.73.6.5.95Z"/>
    <g>
      <path class="cls-1" d="m635.91,265.23c4.25-1.1,8.56-.02,11.79-3.25-4.3,0-7.53,2.15-11.36,3.07-.14.06-.29.12-.43.18Z"/>
      <path class="cls-1" d="m644.47,290.82c4.3-3.02,9.68-.87,13.98-3.02-5.38,0-9.69,0-14.77,2.66.25,0,.51.08.79.36Z"/>
      <path class="cls-1" d="m657.92,212.49c-.27-.01-.4-.02-.67-.09-.95.06-2.02.06-2.53-1.06-.61-.38-1.23-.82-1.83-1.29-1.22-.94-2.41-1.99-3.5-2.83-.34-.08-.69-.12-1.06-.11-.22-.02-.43-.02-.65-.02v-2.15c-1.08,0-2.15,2.15-3.23,1.08-1.08,1.08,2.15,1.08,1.08,2.15.97-.32,1.65-.36,2.15-.18.17.06.32.14.45.24.85-.03.74.5.55,1.03q.08,1.07.08,2.15c4.3,1.08,8.61,2.15,11.84,4.3v-2.15c0-1.08-1.08-1.08-2.22-.95-.16-.05-.31-.08-.47-.1Z"/>
      <path class="cls-1" d="m695.03,245.83c.02-1.08-1.05-1.08-2.13-1.08,0-3.23-3.23-4.3-2.15-7.53-1.21-.4-2.27-1.11-3.29-1.89-.34-.26-.68-.53-1.01-.8-5.38-2.69-8.61-5.92-11.84-11.3h-4.3c-1.08,0-1.08-1.08-1.08-2.15l1.08-1.08h-2.15v-2.15c-.54-.54-1.08-.27-1.61.13s-1.08.94-1.61.94c0-.72-.36-1.2-.84-1.59-.96-.8-2.39-1.28-2.39-2.71-.36.72-.24,1.32.08,1.88,2.07.28,1,3.51,3.55,3.51.4,0,.67,0,.67,0,0,0,0,.27,0,.67,0,2.56-1.08,1.48-2.15,1.48-5.38-1.08-9.69-4.3-12.91-7.53-6.46,1.08-12.91-4.3-19.64-4.42-.14-.02-.29-.05-.43-.07-6.84-.89-13.3-.89-18.53-4.32-.12-.07-.22-.15-.29-.23-.13-.17-.13-.37.13-.64h-3.23v-2.15c-1.08,0-2.15-1.08-2.15-2.15.54-1.08,1.88-1.35,3.23-1.8.22-.08.45-.16.67-.25.41-1.18,1.48-1.18,2.56-1.18v-2.15c5.38-5.38,12.91-7.53,19.37-10.76h-2.15c2.15-1.08,3.23-1.08,5.78-1.61.25,0,.49-.02.72-.04.46-.03.89-.08,1.26-.18.51-.03,1.02-.11,1.14-.47.48-.97,1.75-.77,2.61-1.15,1.32.08.96-2.04,2.45-1.5,2.39.98,4.98.24,7.27-.59,2.54-.84,4.97.08,7.53-.42.63-.13,1.26-.2,1.89-.24.21-.01.42-.02.63-.02,2.09-1.31,4.25.84,6.4.84v-2.15c1.08-1.08,1.08,2.15,1.96,1.01.2.08.42.13.62.15.42.04.82-.05,1.03-.3.11-.13.17-.3.17-.52-1.63-.34.52-1.42-.56-2.5l1.08-1.08c-3.23-4.3-7.53-5.38-12.91-6.46,0-2.15-2.15-1.08-3.23-2.15-1.08,1.08-2.15,2.15-4.3,2.15-1.08,0,1.08-2.15-1.37-2.11-.23.01-.46.03-.7.05-2.23.18-4.59.6-6.94.94-.23.03-.47.07-.7.1-2.11-.22-4.23-.32-6.33-.3-.23,0-.47,0-.7.01-5.86-.84-10.17,2.39-15.55,2.39-1.08,2.15-3.23,2.15-5.38,2.15v2.15c-2.15-1.08-4.3,1.08-7,1.59-.18.17-.36.32-.54.48-1.79,1.52-3.59,2.42-5.38,3.31-1.08,2.15-2.15-1.08-3.23,0-2.15,0,0,3.23-1.75,2.8-.06.14-.13.27-.21.37-.24.31-.6.39-1.27.06v2.15c-2.15,0-4.3,2.15-6.46,2.15v3.23h-2.15v3.23c-9.42,9.76-2.78,26.03,7.1,32.99,2.03,1.88,4.11,3.32,6.25,4.46.21.11.43.23.64.33,2.67,1.63,5.43,3.07,8.3,4.3.22.1.44.19.66.28,1.8.68,5.03,1.76,7.18,3.91,2.15,0,4.3,0,5.38,2.15,6.46-1.08,10.76,2.15,17.04,3.59.22.11.43.22.64.34.21.12.42.25.62.38v-1.08c2.28,0,4.26.6,6.11,1.43.21.09.41.19.61.28.46.14.92.3,1.38.48,3.74,2.11,6.97,3.19,10.64,4.05.41.05.83.09,1.25.12.84.06,1.71.09,2.61.09q0-1.08,1.08-1.08v2.15c0-2.15,1.08,0,2.15-1.08v4.3c-.36-.18-.66-.24-.92-.22-1.24,1.3-2.31,1.3-3.39,1.3v2.15c-3.23,3.23-7.53,2.15-11.84,4.3v2.15c-4.61.77-8.68,1.54-12.97,2.31-.43.08-.86.15-1.3.23-.79,1.77-2.95.69-4.02.69-1.08,2.15-3.23,1.08-5.38,3.23,2.15-3.23,6.46-2.15,8.61-4.3-4.84,0-9.69.54-14.53,1.21-.24.03-.48.07-.72.1-3.04,1.92-7.35-.24-10.58,1.92,0-1.08,0-2.15-1.08-2.15-7.53,3.23-15.07,6.46-23.68,4.3,0,2.15-3.23,1.08-3.5,2.83-.17.12-.33.24-.49.36-1.11.86-2,1.86-2.47,3.27v2.15c0,2.15,3.23,0,2.15,2.15q1.08,0,2.43-.03c.13.01.26.02.4.02.13,0,.27,0,.4,0-2.15,0,0,2.15-1.08,2.15h-3.23l1.08-1.08v2.15c7.53,2.15,15.07-3.23,23.68,0-5.38,3.23-10.76,4.3-17.22,4.3,2.15,0,0-1.08,1.08-2.15-2.15,0,2.15,3.23-1.08,2.15-1.08,0-1.08-1.08-1.08-2.15-1.08,1.08-1.08,3.23-2.15,4.3h2.15v2.15c1.08-2.15,5.38,0,6.46-2.15v3.23c3.23,0,5.38,0,8.22-.17.88.04,1.74.19,2.53.54.79.35,1.52.91,2.17,1.77,6.46-6.46,16.14-3.23,24.79-6.34.36-.12.72-.25,1.08-.39.36-.14.72-.29,1.08-.46.43-.12.87-.24,1.29-.36,3-.87,5.84-1.96,8.35-3.22,5.38,0,9.69,1.08,15.07-1.08,3.23-2.15,6.46-3.23,9.69-3.23,0-2.15,3.23,0,2.15-2.15,3.23,0,5.38-2.15,8.61-2.15v-2.15h-2.15q1.08-1.08,1.84-2.15c.15-.28.31-.58.46-.91.31-.65.62-1.4.93-2.33,1.08,1.08,2.15,1.08,3.23,1.08,1.3-3.19,4.47-4.92,7.53-6.46,1.08-3.23,1.08-7.53,5.38-8.61,0-1.61-.54-3.5-.82-5.33-.07-.46-.13-.92-.15-1.36-.1-.84-1.18-2.99,1.11-3.97.1-.09.38-.09.92-.09Z"/>
    </g>
    <g>
      <path class="cls-1" d="m266.32,230.94c-1.72.39-1.82,3.31-3.15,4.49.58,1.95,3.35-4.17,3.15-4.49Z"/>
      <path class="cls-1" d="m170.59,404.11c.09.12.16.26.34.22-.07-.21-.06-.34-.34-.22Z"/>
      <path class="cls-1" d="m196.07,382.27c.13.09.21.25.34.05-.12-.18-.2-.26-.34-.05Z"/>
      <path class="cls-1" d="m198.84,375.43c-.1.15-.18.27,0,.37.07-.15.19-.26,0-.37Z"/>
      <path class="cls-1" d="m167.6,368.95c-.15-.08-.26-.2-.37,0,.15.09.27.17.37,0Z"/>
      <path class="cls-1" d="m186.08,329.25c-.2.05-.1.03,0,0h0Z"/>
      <path class="cls-1" d="m187.88,328.03c-.04-.08-.09-.16,0,0h0Z"/>
      <path class="cls-1" d="m191.25,318.04c-.2.05-.09.03,0,0h0Z"/>
      <path class="cls-1" d="m198.65,301.92c-.16-.11-.08-.05,0,0h0Z"/>
      <path class="cls-1" d="m259.16,245.72c.19-.08.04-.22-.06-.33-.2.15-.14.23.06.33Z"/>
      <path class="cls-1" d="m170.93,404.5c.05.19.13.36.21.54.27-.18.04-.96-.21-.54Z"/>
      <path class="cls-1" d="m214.56,228.72c-.28.05-.71-.19-.74.37.28-.06.71.18.74-.37Z"/>
      <path class="cls-1" d="m194.59,385.44c.47-.22.39-.33.23-.89-.18.44-.26.51-.23.89Z"/>
      <path class="cls-1" d="m167.64,367.06c0,.2.03.4.06.73.35-.33.36-.51-.06-.73Z"/>
      <path class="cls-1" d="m197.94,304.28c-.09-.14-.15-.24,0,0h0Z"/>
      <path class="cls-1" d="m88.79,218.45c.07.49.05.21,0,0h0Z"/>
      <path class="cls-1" d="m89.23,218.26c-.03-.11-.07-.19,0,0h0Z"/>
      <path class="cls-1" d="m217.15,226.87c-.58-.06-.96.16-1.11.74.58.06.96-.16,1.11-.74Z"/>
      <path class="cls-1" d="m159.16,263.88c-.18-.25-.13-.15,0,0h0Z"/>
      <path class="cls-1" d="m183.52,253.79c-.33-.24-.2-.11,0,0h0Z"/>
      <path class="cls-1" d="m109.46,237.23c1.51-.72,2.09-1.77.28-1.88q-.11.85-.28,1.88Z"/>
      <path class="cls-1" d="m215.71,232.65c.43.75.82.36,1.37.03-.44-.37-.92-.3-1.37-.03Z"/>
      <path class="cls-1" d="m216.04,227.61c-.81-.06-1.16.51-1.48,1.11.81.05,1.15-.52,1.48-1.11Z"/>
      <path class="cls-1" d="m254.1,218.87c-.27-.65-2-.61-1.28.2.44.02.91.09,1.28-.2Z"/>
      <path class="cls-1" d="m253.52,219.52c-.49.51.41.84.48,1.36.91-.43.4-1.53-.48-1.36Z"/>
      <path class="cls-1" d="m213.48,229.63c.17-.13.41-.34.34-.53-.48-.16-.3.26-.34.53Z"/>
      <path class="cls-1" d="m213.48,229.63c-.59.44-.85.97-1.55,1.05.78-.02,1.47-.15,1.55-1.05Z"/>
      <path class="cls-1" d="m197.1,309.82c.06-1.49-1.89-1.69-2.82-1.65,1.08,1.08,1.08,2.15,2.82,1.65Z"/>
      <path class="cls-1" d="m179.84,347.05c-.42-.92-.53-2.22-1.7-2.29-1.81,1.07.92,2.34,1.7,2.29Z"/>
      <path class="cls-1" d="m156.62,265.12c1.08,1.08,1.08-2.15,2.21-1.41-2-1.31-2.48-1.21-2.21,1.41Z"/>
      <path class="cls-1" d="m211.47,237.99c1.3-.02-.28-1.52.04-1.93-3.1-.58-2.6,3.68-.04,1.93Z"/>
      <path class="cls-1" d="m110.62,300.24c-1.27-2.04-4.02.71-1.36,1.47,1.54.47,3.06-1.41,1.36-1.47Z"/>
      <path class="cls-1" d="m153.54,265.19c.37-.17.7-.46.98-.93-1.13-.11-1.11.41-.98.93Z"/>
      <path class="cls-1" d="m151.73,265.36c-3.21-.71.48,1.25,1.65.84,0-2.15-1.08,0-1.65-.84Z"/>
      <path class="cls-1" d="m120.02,211.31c-1.43.05-1.59-.42-2.76-.23.17,1.15,3.13,2.42,2.76.23Z"/>
      <path class="cls-1" d="m117.87,213.46c0-.31,0-.61-.02-.9-.19.15-.23.41.02.9Z"/>
      <path class="cls-1" d="m117.26,211.07c-.13-.18-.37-.22,0,0h0Z"/>
      <path class="cls-1" d="m223.89,221.65c-1.34,1.54-7.04,4.15-6.19,5.21,1.86-1.57,5.76-2.99,6.19-5.21Z"/>
      <path class="cls-1" d="m115.72,229.6c0-2.15,2.15,0,2.15-1.08,1.38-5.32-2.66-2.53-2.15,1.08Z"/>
      <path class="cls-1" d="m134.03,157.41c1.71-3.74-5.84,2.77-6.47,5.47,3.23,1.08,4.31-3.23,6.47-5.47Z"/>
      <path class="cls-1" d="m95.27,293.1c3.23-.18,8.56,10.22,8.28,4.86-3.67-.28-2.11-6.06-8.28-4.86Z"/>
      <path class="cls-1" d="m167.46,259.36c-2.31.8-4.99,1.94-7.62,2.53,10.22,2.7,9.07-7.89,7.62-2.53Z"/>
      <path class="cls-1" d="m226.13,220.2c1.21-1.73,4.75-7.48,3.67-9.13-.56,1.67-2.5,2.08-3.16,3.46,2.93,1.14-5.13,7.78-.51,5.66Z"/>
      <path class="cls-1" d="m93.33,282.14c-2.25-4.39-2.42,12.37,3.02,6.65-2.15-2.15-1.08-4.3-3.02-6.65Z"/>
      <path class="cls-1" d="m262.28,235.24c.42-1.82,2.92-5.04-.51-2.84-.56-1.33-3.64,2.13-3.07.09.63-.55,1.93-3.35.85-3.79-.62-1.33-5.19-2.68-3.72-3.38,3.39-4.5-4.67-3.41-5.36-2.98-.11-.2-.25-.38-.4-.55-2.56-4.44.73-.39,2.59-2.7-2.93.08-.04-3.04-2.7-.73-6.43,1.49.32-2.02-6.33-2.98-2.54-3.19-6.21,4.08-6.61-1.75-.54-1.23-.96.87-1.54-.09-3.19,1.68-4.75,2.62-3.91,7.09-1.36.43-4.23,1.09-2.13,3.14.47,1.88-7.11,2.28-8.88,5.57,9.82-4.9,2.21.68-2.24,4.11-12.02,15.5-38.31,18.65-47.7,29.99-5.25-.9-17.98,2.62-19.37,5.99-2.67-.75-6.31-8.94-7.53-3.23,4.55-.38,1.41,4.07-1.07,0,.32-2.8-.32-2.07-2.15-2.15.7,4.01-3.24,2.1-2.15-1.08-36.8-.14-28.23-6.26-22.6-33.36-4.61,10.26-5.74,14.76-11.84,8.61,3.87-.29,1.67-6.99,6.46-5.38-1.25-1.85-.83-3.72-3.23-3.23,0-1.08,1.08-2.15,1.08-2.15,9.16,1.49,5.32-11.54,11.84-11.84-2.15,0-1.08-1.08-1.08-2.15-11.22,4.61,1.2-11.84,6.46-12.92.28-2.78,7.62-15.95,13.99-13.99-6.43-5.95,27.22-29.4,29.06-23.68,0-2.15,2.15-2.15,3.23-3.23-6.92-1.04.23-1.66,3.23,0,.11-12.11,18.51-.26,24.75-5.38-1.56-7.26,2.97-1.87,2.65-7.12-4.99-6.93-7.64-13.79-13.41-15.48-.35.04-.69.1-1.04.16-.08-6.38-1.11-.16-.75-.2,0,.07.09.18.21.28-9.82,1.68-19.47,8.02-30,11.15-2.8.25-5.67-.36-5.02,3.68-15.53,8.78-27.06,22.13-36.6,33.36-7.09-1.75-2.57,6.26-6.45,2.16,2.81,3.27-1.07,4.66-4.31,5.38-.09,4.36.65,10.07-5.38,8.61,2.65,8.41-10.04,15.85-7.53,25.83-2.08-.62-6.1,4.14-3.23,5.38-3.72,4.68-8.76,56.4,6.45,49.51,22.91,48.12,89.57,7.79,113.06-9.53,19.11-19.51-2.78,18.02-7.58,28.9,7.85-3.78-7.71,13.23-2.15,10.76,0,4.31-3.23,7.54-4.3,11.84-2.15,2.15,0-3.23-2.15-1.08-1.31,3.57-3.87,5.09-5.38,9.69,4.32-.78,2.77,1.35,2.15,4.31-.25,2.27-3.58.15-4.31-1.08,1.56,2.5-4.2,4.69-1.08,5.38-.85-1.35,4.01-4.84,4.31-2.15-11.58,7.11-2.84,9.07-9.69,16.14.85-7.23-5.55,5.56-5.38,8.61-5.31,2.95-3.2,9.44-4.28,11.88-2.48-3.66-2.22,1.63-4.14.71-.68,2.96-.54,4.99-2.03,7.87,8.3.82-2.36,4.46.98,8.85,2.82.89,2.1,3.77,2.23,5.96,2.26,1.89,1.14,1.39-.14,3.06,4.4-1.79,2.84,3,.64,4.97-.15.98-.09,1.7-.43,2.64,2.58.63,2.94-6.05,4.68-5.89.71,1.32.39,1.92-.97,3.31,2.88,1.59,2.94.62,2.55,4.43,4.46-.35,4.04-8.9,7.56-7.12-.16,1.48-2.61,2.53.03,3.49,8.17,4.11,9.38-9.89,13.7-16.06.61-1.43.96-.07,1.82-.48-1.68-2.55.76-4.51,1.45-5.99-.62-3.15,3.02,1.09,1.56-5.58,2.7-3.77,5.48-6.72,6.99-11.04-1.37-1.93,2.6-2.17,2.15-4.64,1.04-.83,2.11-3.68,1.61-5.42,4.26-5.09,9.22-14.9,11.77-23.87,12.52-21.99,20.55-46.15,33.04-68.78,2.94-4.22,13.11-22.6,4.42-12.71-.79-.34-.11-2.54.99-2.96.36-2.38,5.17-7.94,3.35-10.15Zm-63.77-84.51c-.31-.19-.65-.42-.99-.77.87,0,1.03.35.99.77Zm-86.13,67.61c.13-.43.16-.69.16-.84.1.13.37.29,1.03.26.81-1.09,1.34-1.1,2.15,0-1.59,6.74-4.6,4.42-3.34.58Zm-25.71,48.93c.39.78.78,1.55,1.19,2.29-.62-.67-1.19-1.38-1.19-2.29Zm2.68,5.16c-.02-1.2.58.21,1.15.48-.33-.18-.71-.34-1.15-.48Zm19.92-27.76c-2.15,0,0,4.31-3.23,3.23-2.71-1.95,6.34-10.17,3.23-3.23Zm29.49,22.41c-.43.19.65-.88,1.15-.56-.37.11-.75.29-1.15.56Z"/>
    </g>
    <g>
      <path class="cls-1" d="m282.45,189.87c0-1.02-.96-3,.49-3.98-1.42-3.13-5.08,5.01-.49,3.98Z"/>
      <path class="cls-1" d="m360.6,254.81c-1.67-2,2.49-9.99-1.22-8.64-2.07-4.5,4.26-3.09,1.02-6.7-.28-.75,1.45-.42.81-1.42-3.4-16.88-2.38-18.2-7.73-35.27-13.88-8.67-22.64-16.06-41.97-9.68-1.15,6.25-3.77-1.46-.72-5.03-.97-10.33,8.13-22.94.72-30.49,2.96-4.32-5.19-19.48-7.54-11.84-2.25-4.29-7.05,4.81-6.46-1.07-1.08,0-1.08,1.08-2.15,1.08,1.18,5.5-1.98,2.8-4.31,6.46,0-2.15,0-5.38-3.23-6.46,1.57,12.09,7.79,6.59-2.15,20.45,1.51.1,2.9-1.91,3.23-4.3,2.35.18-1.07,9.9-3.23,8.61-3.8,8.92-.68,12.4,1.08,1.08,1.66,1.28-2.04,4.73,1.08,6.46-6.84,5.87.46,13.33-7.53,20.45,1.22-4.48-4.41-1.21-1.08,0-2.76.08-2.08-.61-2.15,2.15,1.83.05,3.93-.55,3.23,2.15-1.85.04-3.92-.55-3.23,2.15,4.1-1.57,1.15,4.29,1.08,5.38-1.08-1.08,1.08-2.15-1.08-2.15-.08,1.75.62,5.38-2.15,4.3,1.71,6.62-2.54,11.6,0,18.3-3.72.36-1.06,10.72-3.23,7.53.66,6.14-3.92,4.56-7.53,8.61-.57,4.12,5.36.37,5.38,5.38-5.95-1.9-3.41,5.69,0,5.38-2.31,5.23-2.54,12.21,2.15,16.14.08,4.44,1.11,8.97,4.64,11.83.06,4.7-.45,3.94,3.93,2,2.25-2.7,2.47-9.31,3.99-1.17,5.14,10.83,11.72-10.42,12.08-15.24-5.19.22.67-3.39.37-5.51.37-11.69,9.78-23.78,11.59-32.81,4.36-1.42,18.26-24.21,21.52-18.3,6.59,14.2,3.82,26.02,3.89,41.69,1.23,6.99,5.6,11.92,7.02,18.93,1.71,1.69,1.07,4.21,1.82,6.32-.36,2.26,3.6,1.83,2.23,3.56,4.1,2.57,2.67,11.12,6.94,12.49-1.25-1.92,1.34-3.38.18-5.17-.97-1.08-.79-3.69.27-2.34.53.84.61,4.51,1.94,4.02,3.74-.05-.95-5.42,1.71-6.25.78,10.22,6.52,2.61,7.96-3.18-3.77-8.51-2.57-20.11-3.16-29.87Zm-83.64-34.05c.08-.6.1-1.4.1-2.23.14.81.7,1.42-.1,2.23Z"/>
      <path class="cls-1" d="m276.11,286.93c.17-.1.09-.23,0-.37-.19.1-.07.23,0,.37Z"/>
    </g>
    <g>
      <path class="cls-1" d="m732.58,192.02c-.68-.55,2.61-3.03,3.28-2.38.26,1.42-2.59,1.09-3.28,2.38Z"/>
      <path class="cls-1" d="m707.53,210.15c3.15-6.84,9.57-12.54,15.51-17.08-4.24,5.46-10.99,10.6-15.51,17.08Z"/>
      <path class="cls-1" d="m699.8,251.21c1.08,1.08,3.23,2.15,2.15,4.3,8.99,7.49,17.51,20.21,30.42,19.76,6.89.56,13.31,3.44,20.17,2.84h-3.23c1.08,0,2.15,0,2.15,1.08,4.18-1.05,8.71-2.17,12.91-2.15-6.94-.2-14.88-2.01-21.52-1.08-1.08-1.08-2.15-1.08-2.15-3.23.55,0,1.09,0,1.64.07.51-.07,1.59,1.01,1.78.48-.35-.32-.62-.6-.84-.84.65-.79.65-1.86.65-2.94v2.15c9.05,5.67,18.77,2.95,27.98-1.08l2.15,2.15c6.46-5.38,16.14-8.61,24.75-8.61-.96,0-1.71-.43-2.44-.81,1.01.03,1.87-.21,2.44-1.34l-1.08-1.08c-1.08,2.15-3.23,0-4.3,2.15q0-1.08-1.08-1.08c2.63,0,4.54-1.42,6.9-1.38-.81-.23-1.67-.55-2.53-.78h1.01c-1.08-2.15-3.23-1.08-5.38-1.08,0-2.15,1.08-2.15,2.15-3.23-2.15,0-4.3-1.08-5.38,1.08-1.08-2.15-1.08,3.23-2.15,0,2.15-1.08,3.23-3.23,5.38-2.15-3.23-3.23-6.46-1.08-10.76-1.08l1.08-1.08h-2.15c1.08-2.15,3.23,0,4.3-1.08v-2.15c-2.15,0-4.3,0-6.46-1.08,1.08,1.08-1.08,3.23,1.08,3.23-13.36,7.37-30.78,1.77-45.2,5.38-2.15,0-3.23,0-4.3-1.08-1.08-3.23-4.3-4.3-7.53-6.46,0-5.38-1.08-10.76,1.08-16.14,1.08-1.08,3.23-1.08,3.23-3.23,5.35-1.33-.28,6.31-1.08,8.61,7.49-1.91,15.22-5.01,22.85-1.57,5.13-.58,9.44-1.66,14.82-1.66-.68-3.33,3.66-1.85,5.38-2.15,0-1.08,0-2.15,1.08-2.15,25.31-9.63,21.2-38.29-17.82-41.78.08-.08.03-.18-.05-.3-.14.08-.09.17-.04.27-2.31-.64-4.53-1.57-6.57-3.16-4.19-3.73.07,1.17,2.2,2.61-1.8-.78-15.04-4.37-8.7-.38,3.59,2.57,2.89-1.16,7.49,2.72,1.31,4.62-4.81-1.21-5.75.84.37,1.62-2.05,2.54-2.49,3.91-.82.33-3.3-1.65-3.22-.11.27,2.41-10.39,5.33-1.26-.58,2.43-4.75-2.49.81-3.75,1.31,4.44-6.48-2.3-.89-5.73,1.09.16,1.74,4.21-1.57,5.05-2.73.2,1.2.52,3.07-1.23,2.72-1.17,1.12,1.16.66,1.09,1.07,1.61,1.04-3.11,3.02-4.1,3.42-.6-.02,2.34-2.15,2.87-2.46-2.95-.69-7.06,4.68-10.08,6.45.24,1.16-1.14,2.4,1.64.83-1.84,1.42-2.48,2.75-2.25,3.61-10.48,16.61-12.56,6.24-1.95-2.59.04.43.51-.29.07-.07,1.66-1.62,3-3.18,3.09-5.11,1.43.39,5.47-2.3,5.33-4.05-1.82,1.07-4.66,3.48-3.44.38-2.16,1.61-5.7,4.92-5.84,6.86-1.49-.23-.55,1.27-2.23,1.18-1.63.51.02.42-.2,1.26-1.42,1.39,3.13-1.09.23,1.48-3.68,3.51-7.03,9.19-8.12,13.95,2.68-3.36,3.51-3.71,2.47-1.12-.19.92-2.35,1.99-1.27,4.15-2.15,0,0-2.15-1.08-2.15-2.15,0-1.08,1.08-1.08,2.15v2.15c0-1.08-1.08-1.08-2.15-1.08,0,1.08,0,2.15-1.08,2.15h2.15c-1.08,7.53-3.23,13.99-2.15,21.52Zm45.7-61.91c-.22-.21-.82-.47-.32-.6.44.04.51.33.32.6Zm16.81,15.99c1.51-2.64,1.7.17,3.36.09.23,1.55-3.03,1.52-3.36-.09Zm-25.91,14.7c-.91-2.36,4.84-4.55,5.25-3.05-1.2.21-2.14.83-3.07,1.49-1.11.49-2.18.49-2.18,1.57Zm-1.61-4.05c3.82-.74,27.83-18.65,26.43-7-8.45,5.34-2.35,3.45,1.75-.32,2.99-2.89,3.36,3.18.39,4.18-4.47,3.6-16.91,9.08-24.81,8.27,3.46-3.82,10.01-4.19,13.61-6.65-.07-.08-.14-.18-.19-.27-5.24-.9-13.22,3.81-17.18,1.79Zm56.67,43.93c.39-.03.74-.08,1.06-.14-.16.08.92.08.92.08q-1.08,0-1.98.06Zm-42.51,12.86c-.95,0-1.85-.01-2.35-.14-.33-.93,2.08.46,2.35.14Zm-29.65-66.21c2.2-1.34,2.01-3.91,5.12-4.2,1.22-.71-3.94,3.96-5.12,4.2Z"/>
      <path class="cls-1" d="m700.88,227.54s0-1.08-.35-1.57c0-.1,0-.23-.04-.32l.41.09c-.03-3.06,1.1-7.49,3.73-8.43-.92,1.85-2.13,5.83-3.14,8.56.46-.48,1.54.59,1.54.59-1.08,0-2.15-1.08-2.15,1.08Z"/>
      <path class="cls-1" d="m748.99,278.48c.53.16.28.11,0,0h0Z"/>
      <path class="cls-1" d="m743.06,185.96c-.07-.13-.18-.24,0-.34.06.13.17.24,0,.34Z"/>
      <path class="cls-1" d="m748.11,186.7c.13.06.29.15.11.22-.15-.05-.3-.1-.11-.22Z"/>
      <path class="cls-1" d="m732.21,192.46c.19.12.03.19-.05.32-.2-.13-.12-.2.05-.32Z"/>
      <path class="cls-1" d="m734.84,193.05c-.18-.09-.02-.17.11-.23.19.13.04.18-.11.23Z"/>
      <path class="cls-1" d="m721.92,197.48c-.18-.09-.02-.17.11-.23.2.13.04.18-.11.23Z"/>
      <path class="cls-1" d="m709.05,217.3c.07.13.17.24,0,.34-.07-.13-.18-.24,0-.34Z"/>
      <path class="cls-1" d="m711.26,207.58c-.16.16-.25.15-.26-.05.12-.07.31-.18.26.05Z"/>
      <path class="cls-1" d="m718.6,203.7c.19.12.04.19-.05.32-.18-.14-.12-.2.05-.32Z"/>
    </g>
  </g>
</svg>